<svg width="16" height="16" viewBox="0 0 16 16" fill="none" xmlns="http://www.w3.org/2000/svg">
<path fill-rule="evenodd" clip-rule="evenodd" d="M0.0401613 1.41993C0.0401613 1.08757 0.172193 0.768816 0.40721 0.533798C0.642227 0.298781 0.960979 0.16675 1.29334 0.16675H13.7856C13.9503 0.166481 14.1135 0.198702 14.2657 0.261568C14.418 0.324434 14.5563 0.416711 14.6728 0.533116C14.7894 0.64952 14.8818 0.787766 14.9448 0.939939C15.0079 1.09211 15.0403 1.25522 15.0402 1.41993V13.9122C15.0404 14.077 15.008 14.2401 14.9451 14.3924C14.8822 14.5446 14.7898 14.683 14.6734 14.7995C14.5569 14.916 14.4186 15.0084 14.2664 15.0714C14.1142 15.1345 13.9511 15.1669 13.7863 15.1668H1.29334C1.12872 15.1668 0.965702 15.1343 0.813614 15.0713C0.661527 15.0083 0.523347 14.9159 0.406969 14.7995C0.290591 14.683 0.198297 14.5448 0.135358 14.3927C0.0724202 14.2406 0.0400717 14.0775 0.0401613 13.9129V1.41993ZM5.97744 5.88585H8.00858V6.90585C8.30176 6.31948 9.05176 5.79175 10.1788 5.79175C12.3395 5.79175 12.8515 6.95971 12.8515 9.10267V13.0722H10.6649V9.59085C10.6649 8.37039 10.3718 7.68176 9.62721 7.68176C8.59426 7.68176 8.16471 8.42426 8.16471 9.59085V13.0722H5.97744V5.88585ZM2.22744 12.9788H4.41471V5.79175H2.22744V12.9788ZM4.72767 3.44766C4.73179 3.63494 4.69846 3.82115 4.62965 3.99538C4.56083 4.1696 4.4579 4.32832 4.32691 4.46223C4.19592 4.59614 4.0395 4.70253 3.86684 4.77517C3.69417 4.8478 3.50874 4.88522 3.32141 4.88522C3.13409 4.88522 2.94866 4.8478 2.77599 4.77517C2.60332 4.70253 2.44691 4.59614 2.31591 4.46223C2.18492 4.32832 2.082 4.1696 2.01318 3.99538C1.94436 3.82115 1.91104 3.63494 1.91516 3.44766C1.92326 3.08006 2.07497 2.73025 2.33781 2.47313C2.60065 2.21601 2.95373 2.07204 3.32141 2.07204C3.6891 2.07204 4.04217 2.21601 4.30502 2.47313C4.56786 2.73025 4.71957 3.08006 4.72767 3.44766Z" fill="white"/>
</svg>
