<svg width="19" height="15" viewBox="0 0 19 15" fill="none" xmlns="http://www.w3.org/2000/svg">
<path d="M18.2068 1.84717C17.5632 2.13115 16.8719 2.32302 16.1451 2.40974C16.895 1.96291 17.4561 1.25964 17.7236 0.431161C17.019 0.847899 16.2479 1.14124 15.4438 1.29842C14.903 0.72347 14.1868 0.342383 13.4062 0.214326C12.6257 0.0862695 11.8245 0.218408 11.1271 0.590225C10.4297 0.962043 9.87512 1.55274 9.5494 2.2706C9.22368 2.98846 9.14507 3.79333 9.32577 4.56024C7.89815 4.48886 6.50156 4.11936 5.22663 3.47571C3.9517 2.83206 2.82692 1.92865 1.9253 0.824115C1.61701 1.35368 1.43974 1.96767 1.43974 2.62157C1.4394 3.21023 1.58497 3.78987 1.86355 4.30907C2.14212 4.82827 2.54508 5.27096 3.03668 5.59788C2.46656 5.57982 1.90902 5.42641 1.41046 5.15044V5.19649C1.4104 6.0221 1.69719 6.82232 2.22217 7.46134C2.74715 8.10036 3.47797 8.53884 4.29064 8.70237C3.76176 8.8449 3.20727 8.8659 2.66905 8.76377C2.89833 9.47416 3.34497 10.0954 3.94642 10.5404C4.54786 10.9855 5.27402 11.2321 6.02323 11.2458C4.75141 12.24 3.18072 12.7793 1.56383 12.777C1.27742 12.777 0.991242 12.7604 0.706787 12.7271C2.34802 13.7779 4.25854 14.3356 6.20974 14.3334C12.8148 14.3334 16.4257 8.8858 16.4257 4.16115C16.4257 4.00765 16.4218 3.85262 16.4149 3.69912C17.1172 3.19333 17.7235 2.567 18.2053 1.84948L18.2068 1.84717Z" fill="white"/>
</svg>
